<svg width="65" height="67" viewBox="5 8 65 67" xmlns="http://www.w3.org/2000/svg">
    <path fill="none" stroke="#ffffff" stroke-width="6" stroke-linecap="round" stroke-linejoin="round" d="M 16.529179 46.490959 C 16.529179 46.490959 23.84716 45.054893 27.103683 46.490959 C 28.255037 46.998684 29.270403 48.079662 29.747309 49.305424 C 31.43343 53.639133 31.43343 59.044037 29.747309 63.377747 C 29.270403 64.603508 28.255037 65.684486 27.103683 66.192215 C 24.661291 67.269264 21.615198 67.269264 19.172806 66.192215 C 18.021452 65.684486 17.006086 64.603508 16.529179 63.377747 C 13.15694 54.710327 13.15694 43.90052 16.529179 35.233097 C 19.390619 27.878544 25.482807 21.392662 32.390934 18.346306 C 36.46159 16.551224 41.53841 16.551224 45.609062 18.346306 C 52.517193 21.392662 58.609379 27.878544 61.470818 35.233097 C 64.843056 43.90052 64.843056 54.710327 61.470818 63.377747 C 60.993912 64.603508 59.978546 65.684486 58.827194 66.192215 C 56.3848 67.269264 53.338707 67.269264 50.896317 66.192215 C 49.744961 65.684486 48.729595 64.603508 48.252689 63.377747 C 46.56657 59.044037 46.56657 53.639133 48.252689 49.305424 C 48.729595 48.079662 49.744961 46.998684 50.896317 46.490959 C 54.15284 45.054893 61.470818 46.490959 61.470818 46.490959"/>
</svg>
