<?xml version="1.0" standalone="no"?>
<!DOCTYPE svg PUBLIC "-//W3C//DTD SVG 20010904//EN"
 "http://www.w3.org/TR/2001/REC-SVG-20010904/DTD/svg10.dtd">
<svg version="1.0" xmlns="http://www.w3.org/2000/svg"
 width="1024.000000pt" height="1024.000000pt" viewBox="0 0 1024.000000 1024.000000"
 preserveAspectRatio="xMidYMid meet">
<metadata>
Created by potrace 1.16, written by Peter Selinger 2001-2019
</metadata>
<g transform="translate(0.000000,1024.000000) scale(0.100000,-0.100000)"
fill="#000000" stroke="none">
<path d="M4945 8294 c-511 -31 -1042 -215 -1437 -497 -364 -260 -663 -603
-852 -976 -125 -247 -201 -476 -246 -736 -12 -71 -23 -131 -24 -133 -2 -1 -30
-9 -62 -18 -317 -81 -556 -377 -619 -767 -17 -107 -20 -355 -5 -475 50 -399
263 -698 577 -812 295 -106 561 -40 602 151 14 62 15 1706 1 1763 -5 22 -18
53 -30 69 -21 28 -22 33 -11 106 76 487 292 906 642 1246 581 563 1443 777
2269 563 548 -141 1059 -511 1348 -974 145 -233 239 -475 292 -756 26 -134 25
-152 -7 -195 l-28 -36 -3 -897 -2 -896 27 -54 c53 -104 160 -147 343 -137 207
11 376 86 534 236 191 184 282 411 301 756 14 243 -27 474 -115 652 -123 249
-322 415 -560 467 -24 5 -26 12 -48 143 -75 439 -279 877 -575 1228 -447 532
-1070 867 -1787 959 -117 15 -416 27 -525 20z"/>
<path d="M3356 6450 c-16 -5 -40 -19 -53 -32 -56 -52 -53 42 -53 -1525 l0
-1448 23 -39 c42 -74 57 -79 245 -88 639 -30 1176 -183 1447 -413 68 -57 106
-75 159 -75 39 0 53 7 124 63 177 141 398 241 699 316 253 63 407 85 703 101
245 14 240 13 281 47 63 53 59 -42 59 1521 0 1039 -3 1438 -11 1463 -16 46
-65 96 -108 110 -68 23 -512 -3 -772 -46 -400 -64 -749 -189 -970 -347 -13 -9
-23 -6 -50 15 -91 69 -284 160 -459 215 -203 65 -539 131 -770 151 -170 16
-461 22 -494 11z m369 -301 c516 -44 986 -179 1208 -347 l47 -36 0 -1247 0
-1247 -112 57 c-307 156 -727 253 -1195 277 l-133 7 0 1273 0 1274 33 0 c17 0
86 -5 152 -11z m2975 -1263 l0 -1273 -142 -7 c-444 -21 -879 -122 -1185 -274
-51 -25 -93 -49 -93 -54 0 -4 -4 -8 -10 -8 -7 0 -10 423 -10 1250 l0 1250 62
46 c166 122 470 225 853 289 174 29 371 52 463 54 l62 1 0 -1274z"/>
<path d="M5980 5430 c-168 -37 -331 -73 -364 -80 -80 -16 -126 -58 -133 -121
-9 -78 48 -149 121 -149 15 0 166 31 335 69 168 38 332 75 365 82 78 17 118
45 134 94 18 55 7 102 -33 142 -28 28 -40 33 -76 32 -24 0 -181 -31 -349 -69z"/>
<path d="M5960 4864 c-423 -93 -413 -91 -446 -125 -32 -34 -44 -117 -22 -159
17 -32 74 -70 106 -70 39 0 732 158 774 177 44 19 65 47 74 101 12 75 -54 153
-128 151 -12 0 -174 -34 -358 -75z"/>
<path d="M5911 4286 c-338 -78 -365 -86 -393 -114 -78 -77 -22 -222 85 -222
20 0 125 20 234 45 109 25 269 61 357 81 87 19 171 41 187 50 77 39 89 153 24
214 -45 42 -96 37 -494 -54z"/>
</g>
</svg>
